<svg width="88" height="20" viewBox="0 0 88 20" fill="none" xmlns="http://www.w3.org/2000/svg">
<path d="M6.87305 12.771L8.34229 12.9619C8.1818 13.9746 7.76953 14.7687 7.10547 15.3442C6.44694 15.9142 5.63623 16.1992 4.67334 16.1992C3.46696 16.1992 2.49577 15.8063 1.75977 15.0205C1.0293 14.2292 0.664062 13.0975 0.664062 11.6255C0.664062 10.6737 0.821777 9.84082 1.13721 9.12695C1.45264 8.41309 1.93132 7.87907 2.57324 7.5249C3.2207 7.1652 3.9235 6.98535 4.68164 6.98535C5.639 6.98535 6.42204 7.22884 7.03076 7.71582C7.63949 8.19727 8.02962 8.88346 8.20117 9.77441L6.74854 9.99854C6.61019 9.40641 6.36393 8.96094 6.00977 8.66211C5.66113 8.36328 5.23779 8.21387 4.73975 8.21387C3.98714 8.21387 3.37565 8.48503 2.90527 9.02734C2.4349 9.56413 2.19971 10.4163 2.19971 11.584C2.19971 12.7682 2.4266 13.6287 2.88037 14.1655C3.33415 14.7023 3.92627 14.9707 4.65674 14.9707C5.24333 14.9707 5.73307 14.7909 6.12598 14.4312C6.51888 14.0715 6.7679 13.5181 6.87305 12.771ZM9.5874 16V3.83105H11.0815V16H9.5874ZM13.4141 5.54932V3.83105H14.9082V5.54932H13.4141ZM13.4141 16V7.18457H14.9082V16H13.4141ZM17.1909 19.3784V7.18457H18.5522V8.33008C18.8732 7.88184 19.2357 7.54704 19.6396 7.32568C20.0436 7.0988 20.5334 6.98535 21.1089 6.98535C21.8615 6.98535 22.5256 7.17904 23.1011 7.56641C23.6766 7.95378 24.111 8.50163 24.4043 9.20996C24.6976 9.91276 24.8442 10.6847 24.8442 11.5259C24.8442 12.4279 24.681 13.2414 24.3545 13.9663C24.0335 14.6857 23.5632 15.2391 22.9434 15.6265C22.3291 16.0083 21.6816 16.1992 21.001 16.1992C20.5029 16.1992 20.0547 16.0941 19.6562 15.8838C19.2633 15.6735 18.9396 15.4079 18.6851 15.0869V19.3784H17.1909ZM18.5439 11.6421C18.5439 12.7765 18.7736 13.6149 19.2329 14.1572C19.6922 14.6995 20.2484 14.9707 20.9014 14.9707C21.5654 14.9707 22.1326 14.6912 22.603 14.1323C23.0789 13.5679 23.3169 12.6963 23.3169 11.5176C23.3169 10.3942 23.0845 9.55306 22.6196 8.99414C22.1603 8.43522 21.6097 8.15576 20.9678 8.15576C20.3314 8.15576 19.7669 8.45459 19.2744 9.05225C18.7874 9.64437 18.5439 10.5076 18.5439 11.6421ZM42.2261 16H40.8398V3.83105H42.334V8.17236C42.9648 7.38102 43.77 6.98535 44.7495 6.98535C45.2918 6.98535 45.8037 7.09603 46.2852 7.31738C46.7721 7.5332 47.1706 7.84033 47.4805 8.23877C47.7959 8.63167 48.0422 9.10758 48.2192 9.6665C48.3963 10.2254 48.4849 10.8231 48.4849 11.4595C48.4849 12.9702 48.1113 14.1379 47.3643 14.9624C46.6172 15.7869 45.7207 16.1992 44.6748 16.1992C43.6344 16.1992 42.8182 15.7648 42.2261 14.896V16ZM42.2095 11.5259C42.2095 12.5828 42.3534 13.3465 42.6411 13.8169C43.1115 14.5861 43.7479 14.9707 44.5503 14.9707C45.2033 14.9707 45.7677 14.6885 46.2437 14.124C46.7196 13.554 46.9575 12.7074 46.9575 11.584C46.9575 10.4329 46.7279 9.5835 46.2686 9.03564C45.8148 8.48779 45.2642 8.21387 44.6167 8.21387C43.9637 8.21387 43.3993 8.49886 42.9233 9.06885C42.4474 9.6333 42.2095 10.4523 42.2095 11.5259ZM50.3193 5.54932V3.83105H51.8135V5.54932H50.3193ZM50.3193 16V7.18457H51.8135V16H50.3193ZM54.0962 16V7.18457H55.4409V8.43799C56.0884 7.46956 57.0236 6.98535 58.2466 6.98535C58.7778 6.98535 59.2648 7.08219 59.7075 7.27588C60.1558 7.46403 60.4906 7.71305 60.7119 8.02295C60.9333 8.33285 61.0882 8.70085 61.1768 9.12695C61.2321 9.40365 61.2598 9.88786 61.2598 10.5796V16H59.7656V10.6377C59.7656 10.029 59.7075 9.5752 59.5913 9.27637C59.4751 8.97201 59.2676 8.73128 58.9688 8.5542C58.6755 8.37158 58.3296 8.28027 57.9312 8.28027C57.2948 8.28027 56.7441 8.48226 56.2793 8.88623C55.82 9.2902 55.5903 10.0566 55.5903 11.1855V16H54.0962ZM69.2783 16V14.8877C68.7194 15.762 67.8976 16.1992 66.813 16.1992C66.1102 16.1992 65.4627 16.0055 64.8706 15.6182C64.284 15.2308 63.8275 14.6912 63.501 13.9995C63.18 13.3022 63.0195 12.5026 63.0195 11.6006C63.0195 10.7207 63.1662 9.92383 63.4595 9.20996C63.7528 8.49056 64.1927 7.93994 64.7793 7.55811C65.3659 7.17627 66.0216 6.98535 66.7466 6.98535C67.2778 6.98535 67.751 7.0988 68.166 7.32568C68.5811 7.54704 68.9186 7.83757 69.1787 8.19727V3.83105H70.6646V16H69.2783ZM64.5552 11.6006C64.5552 12.7295 64.7931 13.5734 65.269 14.1323C65.745 14.6912 66.3066 14.9707 66.9541 14.9707C67.6071 14.9707 68.1605 14.7051 68.6143 14.1738C69.0736 13.637 69.3032 12.8208 69.3032 11.7251C69.3032 10.5187 69.0708 9.6333 68.606 9.06885C68.1411 8.50439 67.5684 8.22217 66.8877 8.22217C66.2236 8.22217 65.6675 8.49333 65.2192 9.03564C64.7765 9.57796 64.5552 10.4329 64.5552 11.6006ZM79.0566 13.1611L80.6006 13.3521C80.3571 14.2541 79.9061 14.9541 79.2476 15.4521C78.589 15.9502 77.7479 16.1992 76.7241 16.1992C75.4347 16.1992 74.411 15.8035 73.6528 15.0122C72.9002 14.2153 72.5239 13.1003 72.5239 11.667C72.5239 10.1839 72.9058 9.03288 73.6694 8.21387C74.4331 7.39486 75.4237 6.98535 76.6411 6.98535C77.8198 6.98535 78.7827 7.38656 79.5298 8.18896C80.2769 8.99137 80.6504 10.1203 80.6504 11.5757C80.6504 11.6642 80.6476 11.797 80.6421 11.9741H74.0679C74.1232 12.9425 74.3971 13.6841 74.8896 14.1987C75.3822 14.7134 75.9964 14.9707 76.7324 14.9707C77.2803 14.9707 77.7479 14.8268 78.1353 14.5391C78.5226 14.2513 78.8298 13.792 79.0566 13.1611ZM74.1509 10.7456H79.0732C79.0068 10.0041 78.8187 9.44792 78.5088 9.07715C78.0329 8.50163 77.4159 8.21387 76.6577 8.21387C75.9715 8.21387 75.3932 8.44352 74.9229 8.90283C74.458 9.36214 74.2007 9.9764 74.1509 10.7456ZM82.4683 16V7.18457H83.813V8.521C84.1561 7.89567 84.4715 7.4834 84.7593 7.28418C85.0526 7.08496 85.3735 6.98535 85.7222 6.98535C86.2257 6.98535 86.7376 7.14583 87.2578 7.4668L86.7432 8.85303C86.3779 8.63721 86.0127 8.5293 85.6475 8.5293C85.321 8.5293 85.0277 8.62891 84.7676 8.82812C84.5075 9.02181 84.3221 9.29297 84.2114 9.6416C84.0454 10.1729 83.9624 10.7539 83.9624 11.3848V16H82.4683Z" fill="white"/>
<path d="M41 10.1345L33.7507 17.4789C31.7489 19.507 28.5032 19.507 26.5014 17.4789C24.4995 15.4508 24.4995 12.1626 26.5014 10.1345L32.5425 4.01406C33.8771 2.66198 36.0408 2.66198 37.3754 4.01406C38.7099 5.36614 38.7099 7.55829 37.3754 8.91037L31.3342 15.0308C30.667 15.7068 29.5851 15.7068 28.9178 15.0308C28.2505 14.3548 28.2505 13.2587 28.9178 12.5826L34.9589 6.46221" stroke="white" stroke-width="1.5" stroke-linecap="round" stroke-linejoin="round"/>
</svg>
